<svg width="298" height="260" viewBox="0 0 298 260" fill="none" xmlns="http://www.w3.org/2000/svg">
<path d="M23 0C23 5.12835 27.4772 9.28613 33 9.28613C38.5228 9.28613 43 5.12835 43 0H56C56 5.12835 60.4772 9.28613 66 9.28613C71.5228 9.28613 76 5.12835 76 0H89C89 5.12835 93.4772 9.28613 99 9.28613C104.523 9.28613 109 5.12835 109 0H122C122 5.12835 126.477 9.28613 132 9.28613C137.523 9.28613 142 5.12835 142 0H155C155 5.12835 159.477 9.28613 165 9.28613C170.523 9.28613 175 5.12835 175 0H188C188 5.12835 192.477 9.28613 198 9.28613C203.523 9.28613 208 5.12835 208 0H221C221 5.12835 225.477 9.28613 231 9.28613C236.523 9.28613 241 5.12835 241 0H254C254 5.12835 258.477 9.28613 264 9.28613C269.523 9.28613 274 5.12835 274 0H287C287 5.12835 291.477 9.28613 297 9.28613C297.338 9.28613 297.671 9.26861 298 9.23828V138C292.477 138 288 142.477 288 148C288 153.523 292.477 158 298 158V250C292.477 250 288 254.477 288 260H275C275 254.477 270.523 250 265 250C259.477 250 255 254.477 255 260H242C242 254.477 237.523 250 232 250C226.477 250 222 254.477 222 260H209C209 254.477 204.523 250 199 250C193.477 250 189 254.477 189 260H176C176 254.477 171.523 250 166 250C160.477 250 156 254.477 156 260H143C143 254.477 138.523 250 133 250C127.477 250 123 254.477 123 260H110C110 254.477 105.523 250 100 250C94.4771 250 90 254.477 90 260H77C77 254.477 72.5229 250 67 250C61.4772 250 57 254.477 57 260H44C44 254.477 39.5228 250 34 250C28.4772 250 24 254.477 24 260H11C11 254.477 6.52285 250 1 250C0.662486 250 0.32892 250.017 0 250.05V157.949C5.05326 157.447 9 153.185 9 148C9 142.815 5.0533 138.552 0 138.05V9.28613C5.52284 9.28613 9.99999 5.12835 10 0H23ZM12 148H20V147H12V148ZM26 148H34V147H26V148ZM40 148H48V147H40V148ZM54 148H62V147H54V148ZM68 148H76V147H68V148ZM82 148H90V147H82V148ZM96 148H104V147H96V148ZM110 148H118V147H110V148ZM124 148H132V147H124V148ZM138 148H146V147H138V148ZM152 148H160V147H152V148ZM166 148H174V147H166V148ZM180 148H188V147H180V148ZM194 148H202V147H194V148ZM208 148H216V147H208V148ZM222 148H230V147H222V148ZM236 148H244V147H236V148ZM250 148H258V147H250V148ZM264 148H272V147H264V148ZM278 147V148H286V147H278Z" fill="white"/>
</svg>
